M48
;GenerationSoftware,Autodesk,EAGLE,9.6.2*%
;CreationDate,2021-03-06T01:09:48Z*%
FMAT,2
ICI,OFF
METRIC,TZ,000.000
T10C0.813
T9C0.900
T8C1.000
T7C1.016
T6C1.092
T5C1.100
T4C1.707
T3C1.753
T2C2.800
T1C4.089
%
G90
M71
T1
X42545Y51435
X99695Y51435
X61595Y51435
X80645Y51435
T2
X35560Y67310
X35560Y97790
X107950Y97790
X107950Y67310
T3
X102235Y56515
X64135Y56515
X57785Y53975
X45085Y56515
X38735Y53975
X76835Y53975
X83185Y56515
X95885Y53975
T4
X66675Y51435
X75565Y51435
X85725Y51435
X94615Y51435
X104775Y51435
X37465Y51435
X47625Y51435
X56515Y51435
T5
X58420Y83820
X53340Y86360
X53340Y83820
X53340Y81280
X58420Y81280
X58420Y88900
X58420Y86360
X53340Y88900
T6
X41275Y46355
X43815Y46355
X79375Y46355
X60325Y46355
X62865Y46355
X81915Y46355
X98425Y46355
X100965Y46355
T7
X76200Y77470
X78740Y77470
X81280Y77470
X83820Y77470
X86360Y77470
X88900Y77470
X91440Y77470
X93980Y77470
X56007Y72390
X53213Y72390
X53213Y76200
X56007Y76200
X66040Y97790
X68580Y97790
X71120Y97790
X73660Y97790
X76200Y97790
X78740Y97790
X81280Y97790
X83820Y97790
X73660Y92710
X88900Y97790
X91440Y97790
X93980Y97790
X93980Y72390
X91440Y72390
X88900Y72390
X86360Y72390
X83820Y72390
X81280Y72390
X78740Y72390
X76200Y72390
X73660Y72390
X71120Y72390
X68580Y72390
X66040Y72390
X101600Y97790
X101600Y95250
X101600Y92710
X44450Y86360
X93980Y92710
X91440Y92710
X88900Y92710
X86360Y92710
X83820Y92710
X81280Y92710
X78740Y92710
X76200Y92710
X86360Y97790
X71120Y92710
X68580Y92710
X66040Y92710
X66040Y77470
X68580Y77470
X71120Y77470
X73660Y77470
T8
X39370Y80010
X100330Y64770
X90170Y60960
X49530Y80010
T9
X63500Y59690
X66040Y59690
X82550Y59690
X85090Y59690
X44450Y59690
X46990Y59690
X101600Y59690
X104140Y59690
T10
X55118Y66040
X51562Y66040
X60960Y67310
X50038Y39929
X60198Y39929
X60960Y77470
X85344Y39929
X75184Y39929
X47752Y39929
X37592Y39929
X88138Y39929
X98298Y39929
M30