G04 EAGLE Gerber RS-274X export*
G75*
%MOMM*%
%FSLAX34Y34*%
%LPD*%
%INSoldermask Top*%
%IPPOS*%
%AMOC8*
5,1,8,0,0,1.08239X$1,22.5*%
G01*
%ADD10P,1.649562X8X292.500000*%
%ADD11C,2.082800*%
%ADD12P,1.951982X8X202.500000*%
%ADD13C,1.803400*%
%ADD14R,2.203200X2.203200*%
%ADD15C,2.203200*%
%ADD16R,2.203200X1.453200*%
%ADD17C,4.292600*%
%ADD18C,1.910081*%
%ADD19C,2.235200*%
%ADD20C,3.429000*%
%ADD21P,1.649562X8X202.500000*%
%ADD22P,1.649562X8X22.500000*%
%ADD23C,3.003200*%
%ADD24C,1.703200*%

G36*
X560036Y756977D02*
X560036Y756977D01*
X560111Y756974D01*
X561087Y757076D01*
X561135Y757090D01*
X561225Y757106D01*
X562154Y757422D01*
X562198Y757447D01*
X562283Y757483D01*
X563118Y757997D01*
X563155Y758031D01*
X563230Y758085D01*
X563930Y758773D01*
X563959Y758814D01*
X564019Y758883D01*
X564548Y759710D01*
X564567Y759756D01*
X564611Y759837D01*
X564943Y760760D01*
X564951Y760810D01*
X564976Y760899D01*
X565094Y761873D01*
X565091Y761923D01*
X565095Y762009D01*
X565000Y763011D01*
X564986Y763060D01*
X564970Y763150D01*
X564654Y764106D01*
X564630Y764151D01*
X564595Y764235D01*
X564073Y765096D01*
X564040Y765134D01*
X563987Y765209D01*
X563287Y765933D01*
X563246Y765962D01*
X563177Y766023D01*
X562334Y766573D01*
X562288Y766593D01*
X562207Y766637D01*
X561263Y766985D01*
X561213Y766994D01*
X561125Y767019D01*
X560127Y767149D01*
X560084Y767147D01*
X559958Y767148D01*
X558947Y767009D01*
X558899Y766993D01*
X558809Y766974D01*
X557854Y766612D01*
X557811Y766586D01*
X557727Y766548D01*
X556877Y765983D01*
X556840Y765948D01*
X556768Y765891D01*
X556064Y765152D01*
X556036Y765109D01*
X555978Y765038D01*
X555457Y764160D01*
X555439Y764113D01*
X555398Y764031D01*
X555085Y763059D01*
X555078Y763009D01*
X555057Y762920D01*
X554968Y761902D01*
X554973Y761852D01*
X554972Y761761D01*
X555103Y760797D01*
X555119Y760749D01*
X555138Y760660D01*
X555480Y759749D01*
X555506Y759706D01*
X555545Y759623D01*
X556082Y758811D01*
X556117Y758775D01*
X556173Y758702D01*
X556877Y758030D01*
X556919Y758003D01*
X556990Y757944D01*
X557826Y757446D01*
X557873Y757428D01*
X557955Y757388D01*
X558881Y757088D01*
X558931Y757081D01*
X559020Y757059D01*
X559989Y756973D01*
X560036Y756977D01*
G37*
G36*
X532045Y756977D02*
X532045Y756977D01*
X532120Y756974D01*
X533096Y757076D01*
X533144Y757090D01*
X533234Y757106D01*
X534163Y757422D01*
X534207Y757447D01*
X534292Y757483D01*
X535127Y757997D01*
X535164Y758031D01*
X535239Y758085D01*
X535939Y758773D01*
X535968Y758814D01*
X536028Y758883D01*
X536557Y759710D01*
X536576Y759756D01*
X536620Y759837D01*
X536952Y760760D01*
X536960Y760810D01*
X536985Y760899D01*
X537103Y761873D01*
X537100Y761923D01*
X537104Y762009D01*
X537009Y763011D01*
X536995Y763060D01*
X536979Y763150D01*
X536663Y764106D01*
X536639Y764151D01*
X536604Y764235D01*
X536082Y765096D01*
X536049Y765134D01*
X535996Y765209D01*
X535296Y765933D01*
X535255Y765962D01*
X535186Y766023D01*
X534343Y766573D01*
X534297Y766593D01*
X534216Y766637D01*
X533272Y766985D01*
X533222Y766994D01*
X533134Y767019D01*
X532136Y767149D01*
X532093Y767147D01*
X531967Y767148D01*
X530956Y767009D01*
X530908Y766993D01*
X530818Y766974D01*
X529863Y766612D01*
X529820Y766586D01*
X529736Y766548D01*
X528886Y765983D01*
X528849Y765948D01*
X528777Y765891D01*
X528073Y765152D01*
X528045Y765109D01*
X527987Y765038D01*
X527466Y764160D01*
X527448Y764113D01*
X527407Y764031D01*
X527094Y763059D01*
X527087Y763009D01*
X527066Y762920D01*
X526977Y761902D01*
X526982Y761852D01*
X526981Y761761D01*
X527112Y760797D01*
X527128Y760749D01*
X527147Y760660D01*
X527489Y759749D01*
X527515Y759706D01*
X527554Y759623D01*
X528091Y758811D01*
X528126Y758775D01*
X528182Y758702D01*
X528886Y758030D01*
X528928Y758003D01*
X528999Y757944D01*
X529835Y757446D01*
X529882Y757428D01*
X529964Y757388D01*
X530890Y757088D01*
X530940Y757081D01*
X531029Y757059D01*
X531998Y756973D01*
X532045Y756977D01*
G37*
G36*
X532116Y718753D02*
X532116Y718753D01*
X532242Y718752D01*
X533253Y718891D01*
X533301Y718907D01*
X533391Y718926D01*
X534346Y719288D01*
X534389Y719314D01*
X534473Y719353D01*
X535323Y719917D01*
X535360Y719952D01*
X535432Y720009D01*
X536136Y720749D01*
X536164Y720791D01*
X536222Y720862D01*
X536743Y721740D01*
X536761Y721787D01*
X536802Y721869D01*
X537115Y722841D01*
X537122Y722891D01*
X537143Y722980D01*
X537232Y723998D01*
X537227Y724048D01*
X537228Y724139D01*
X537097Y725103D01*
X537081Y725151D01*
X537062Y725240D01*
X536720Y726151D01*
X536694Y726194D01*
X536655Y726278D01*
X536118Y727089D01*
X536083Y727125D01*
X536027Y727198D01*
X535323Y727870D01*
X535281Y727898D01*
X535210Y727956D01*
X534375Y728454D01*
X534327Y728472D01*
X534245Y728512D01*
X533320Y728812D01*
X533269Y728819D01*
X533180Y728841D01*
X532211Y728927D01*
X532164Y728923D01*
X532089Y728926D01*
X531113Y728824D01*
X531065Y728810D01*
X530975Y728794D01*
X530046Y728478D01*
X530002Y728454D01*
X529917Y728417D01*
X529082Y727903D01*
X529045Y727869D01*
X528970Y727815D01*
X528271Y727127D01*
X528241Y727086D01*
X528181Y727017D01*
X527652Y726190D01*
X527633Y726144D01*
X527589Y726063D01*
X527257Y725140D01*
X527249Y725090D01*
X527224Y725001D01*
X527106Y724027D01*
X527109Y723977D01*
X527105Y723891D01*
X527200Y722889D01*
X527214Y722840D01*
X527230Y722750D01*
X527546Y721794D01*
X527570Y721749D01*
X527606Y721665D01*
X528127Y720804D01*
X528160Y720766D01*
X528213Y720691D01*
X528913Y719967D01*
X528954Y719938D01*
X529023Y719877D01*
X529866Y719327D01*
X529912Y719307D01*
X529993Y719263D01*
X530937Y718915D01*
X530987Y718906D01*
X531075Y718881D01*
X532073Y718751D01*
X532116Y718753D01*
G37*
G36*
X560107Y718753D02*
X560107Y718753D01*
X560233Y718752D01*
X561244Y718891D01*
X561292Y718907D01*
X561382Y718926D01*
X562337Y719288D01*
X562380Y719314D01*
X562464Y719353D01*
X563314Y719917D01*
X563351Y719952D01*
X563423Y720009D01*
X564127Y720749D01*
X564155Y720791D01*
X564213Y720862D01*
X564734Y721740D01*
X564752Y721787D01*
X564793Y721869D01*
X565106Y722841D01*
X565113Y722891D01*
X565134Y722980D01*
X565223Y723998D01*
X565218Y724048D01*
X565219Y724139D01*
X565088Y725103D01*
X565072Y725151D01*
X565053Y725240D01*
X564711Y726151D01*
X564685Y726194D01*
X564646Y726278D01*
X564109Y727089D01*
X564074Y727125D01*
X564018Y727198D01*
X563314Y727870D01*
X563272Y727898D01*
X563201Y727956D01*
X562366Y728454D01*
X562318Y728472D01*
X562236Y728512D01*
X561311Y728812D01*
X561260Y728819D01*
X561171Y728841D01*
X560202Y728927D01*
X560155Y728923D01*
X560080Y728926D01*
X559104Y728824D01*
X559056Y728810D01*
X558966Y728794D01*
X558037Y728478D01*
X557993Y728454D01*
X557908Y728417D01*
X557073Y727903D01*
X557036Y727869D01*
X556961Y727815D01*
X556262Y727127D01*
X556232Y727086D01*
X556172Y727017D01*
X555643Y726190D01*
X555624Y726144D01*
X555580Y726063D01*
X555248Y725140D01*
X555240Y725090D01*
X555215Y725001D01*
X555097Y724027D01*
X555100Y723977D01*
X555096Y723891D01*
X555191Y722889D01*
X555205Y722840D01*
X555221Y722750D01*
X555537Y721794D01*
X555561Y721749D01*
X555597Y721665D01*
X556118Y720804D01*
X556151Y720766D01*
X556204Y720691D01*
X556904Y719967D01*
X556945Y719938D01*
X557014Y719877D01*
X557857Y719327D01*
X557903Y719307D01*
X557984Y719263D01*
X558928Y718915D01*
X558978Y718906D01*
X559066Y718881D01*
X560064Y718751D01*
X560107Y718753D01*
G37*
D10*
X609600Y774700D03*
X609600Y673100D03*
D11*
X939800Y927100D03*
X914400Y927100D03*
X889000Y927100D03*
X863600Y927100D03*
X838200Y927100D03*
X812800Y927100D03*
X787400Y927100D03*
X762000Y927100D03*
X736600Y927100D03*
X711200Y927100D03*
X685800Y927100D03*
X660400Y927100D03*
X660400Y774700D03*
X685800Y774700D03*
X711200Y774700D03*
X736600Y774700D03*
X762000Y774700D03*
X787400Y774700D03*
X812800Y774700D03*
X838200Y774700D03*
X863600Y774700D03*
X889000Y774700D03*
X914400Y774700D03*
X939800Y774700D03*
D12*
X515620Y660400D03*
D13*
X551180Y660400D03*
D11*
X660400Y977900D03*
X685800Y977900D03*
X711200Y977900D03*
X736600Y977900D03*
X762000Y977900D03*
X787400Y977900D03*
X812800Y977900D03*
X838200Y977900D03*
X863600Y977900D03*
X889000Y977900D03*
X914400Y977900D03*
X939800Y977900D03*
X939800Y723900D03*
X914400Y723900D03*
X889000Y723900D03*
X863600Y723900D03*
X838200Y723900D03*
X812800Y723900D03*
X787400Y723900D03*
X762000Y723900D03*
X736600Y723900D03*
X711200Y723900D03*
X685800Y723900D03*
X660400Y723900D03*
D14*
X584200Y889000D03*
D15*
X584200Y863600D03*
X584200Y838200D03*
X584200Y812800D03*
D14*
X533400Y889000D03*
D15*
X533400Y863600D03*
X533400Y838200D03*
X533400Y812800D03*
D11*
X1016000Y977900D03*
X1016000Y952500D03*
X1016000Y927100D03*
X444500Y863600D03*
D16*
X725500Y643900D03*
X725500Y676900D03*
X671500Y643900D03*
X671500Y676900D03*
X941400Y643900D03*
X941400Y676900D03*
X887400Y643900D03*
X887400Y676900D03*
D17*
X425450Y514350D03*
D18*
X374650Y514350D03*
X476250Y514350D03*
D19*
X412750Y463550D03*
X438150Y463550D03*
D20*
X387350Y539750D03*
X450850Y565150D03*
D21*
X477520Y399288D03*
X375920Y399288D03*
D11*
X444500Y596900D03*
X469900Y596900D03*
D17*
X615950Y514350D03*
D18*
X565150Y514350D03*
X666750Y514350D03*
D19*
X603250Y463550D03*
X628650Y463550D03*
D20*
X577850Y539750D03*
X641350Y565150D03*
D22*
X500380Y399288D03*
X601980Y399288D03*
D11*
X635000Y596900D03*
X660400Y596900D03*
D17*
X806450Y514350D03*
D18*
X755650Y514350D03*
X857250Y514350D03*
D19*
X793750Y463550D03*
X819150Y463550D03*
D20*
X768350Y539750D03*
X831850Y565150D03*
D21*
X853440Y399288D03*
X751840Y399288D03*
D11*
X825500Y596900D03*
X850900Y596900D03*
D17*
X996950Y514350D03*
D18*
X946150Y514350D03*
X1047750Y514350D03*
D19*
X984250Y463550D03*
X1009650Y463550D03*
D20*
X958850Y539750D03*
X1022350Y565150D03*
D22*
X881380Y399288D03*
X982980Y399288D03*
D11*
X1016000Y596900D03*
X1041400Y596900D03*
D23*
X355600Y977900D03*
X1079500Y977900D03*
X1079500Y673100D03*
X355600Y673100D03*
D24*
X393700Y800100D03*
X495300Y800100D03*
X901700Y609600D03*
X1003300Y647700D03*
M02*
